<svg width="113" height="114" viewBox="0 0 113 114" fill="none" xmlns="http://www.w3.org/2000/svg">
<path fill-rule="evenodd" clip-rule="evenodd" d="M99.4146 39.0524C100.687 40.4769 100.584 42.658 99.1836 43.9566L63.3691 77.1608C62.4268 78.0344 60.9912 78.0991 59.9741 77.3138L46.3144 66.7671C45.2925 65.978 43.849 66.0475 42.9076 66.9311L18.699 89.6538C17.2695 90.9956 15.0172 90.9034 13.7022 89.4492C12.4213 88.0327 12.5106 85.8513 13.9031 84.5443L42.4739 57.7272C43.4152 56.8436 44.8588 56.7741 45.8807 57.5631L59.5692 68.1321C60.5862 68.9174 62.0219 68.8527 62.9642 67.9791L94.4186 38.8171C95.8565 37.484 98.1084 37.5901 99.4146 39.0524Z" fill="#EBF1FF"/>
<path fill-rule="evenodd" clip-rule="evenodd" d="M92.825 26.4215L61.5342 55.0858L44.3354 41.8064L14.5777 69.7377L12.7695 67.7383L44.1686 38.2664L61.3892 51.5626L91.0408 24.3999L92.825 26.4215Z" fill="#5F52F0"/>
<path d="M18.8908 68.2065C18.8908 70.5548 17.0222 72.4586 14.7171 72.4586C12.4121 72.4586 10.5435 70.5548 10.5435 68.2065C10.5435 65.8581 12.4121 63.9544 14.7171 63.9544C17.0222 63.9544 18.8908 65.8581 18.8908 68.2065Z" fill="#5F52F0"/>
<path d="M15.7607 68.2065C15.7607 67.6194 15.2935 67.1435 14.7172 67.1435C14.141 67.1435 13.6738 67.6194 13.6738 68.2065C13.6738 68.7936 14.141 69.2695 14.7172 69.2695C15.2935 69.2695 15.7607 68.7936 15.7607 68.2065Z" fill="white"/>
<path d="M48.1066 41.0995C48.1066 43.4478 46.238 45.3516 43.9329 45.3516C41.6279 45.3516 39.7593 43.4478 39.7593 41.0995C39.7593 38.7511 41.6279 36.8474 43.9329 36.8474C46.238 36.8474 48.1066 38.7511 48.1066 41.0995Z" fill="#5F52F0"/>
<path d="M44.9762 41.0995C44.9762 40.5124 44.5091 40.0365 43.9328 40.0365C43.3566 40.0365 42.8894 40.5124 42.8894 41.0995C42.8894 41.6866 43.3566 42.1625 43.9328 42.1625C44.5091 42.1625 44.9762 41.6866 44.9762 41.0995Z" fill="white"/>
<path d="M66.8881 52.7927C66.8881 55.141 65.0195 57.0447 62.7144 57.0447C60.4094 57.0447 58.5408 55.141 58.5408 52.7927C58.5408 50.4443 60.4094 48.5406 62.7144 48.5406C65.0195 48.5406 66.8881 50.4443 66.8881 52.7927Z" fill="#5F52F0"/>
<path d="M63.7577 52.7926C63.7577 52.2055 63.2906 51.7296 62.7143 51.7296C62.1381 51.7296 61.6709 52.2055 61.6709 52.7926C61.6709 53.3797 62.1381 53.8557 62.7143 53.8557C63.2906 53.8557 63.7577 53.3797 63.7577 52.7926Z" fill="white"/>
<path d="M96.2778 25.313C96.2778 27.6614 94.4091 29.5651 92.1041 29.5651C89.799 29.5651 87.9304 27.6614 87.9304 25.313C87.9304 22.9646 89.799 21.0609 92.1041 21.0609C94.4091 21.0609 96.2778 22.9646 96.2778 25.313Z" fill="#5F52F0"/>
<path d="M93.1474 25.313C93.1474 24.7259 92.6802 24.25 92.104 24.25C91.5277 24.25 91.0605 24.7259 91.0605 25.313C91.0605 25.9001 91.5277 26.376 92.104 26.376C92.6802 26.376 93.1474 25.9001 93.1474 25.313Z" fill="white"/>
</svg>
