<svg width="113" height="114" viewBox="0 0 113 114" fill="none" xmlns="http://www.w3.org/2000/svg">
<path d="M99.3562 49.1109C99.3562 46.2063 97.0015 43.8516 94.0968 43.8516H84.4546C81.5499 43.8516 79.1952 46.2063 79.1952 49.1109V53.4938C79.1952 56.3984 76.8405 58.7531 73.9358 58.7531H61.664C59.2434 58.7531 57.2811 60.7154 57.2811 63.1359C57.2811 65.5565 55.3189 67.5188 52.8983 67.5188H40.1882C38.4938 67.5188 37.1202 68.8923 37.1202 70.5867C37.1202 72.2811 35.7466 73.6547 34.0522 73.6547H23.0952C20.1905 73.6547 17.8358 76.0094 17.8358 78.9141V88.5563C17.8358 91.4609 20.1905 93.8156 23.0952 93.8156H94.0968C97.0015 93.8156 99.3562 91.4609 99.3562 88.5563V49.1109Z" fill="#EBF1FF"/>
<rect x="26.3792" y="60.8124" width="3.50625" height="12.1458" rx="1.75313" fill="#5F52F0"/>
<rect x="46.384" y="43.6654" width="3.50625" height="29.2928" rx="1.75313" fill="#5F52F0"/>
<rect x="66.389" y="26.5184" width="3.50625" height="46.4398" rx="1.75313" fill="#5F52F0"/>
<rect x="87.1083" y="15.8016" width="3.50625" height="57.1567" rx="1.75313" fill="#5F52F0"/>
<line x1="24.3979" y1="83.4169" x2="93.052" y2="83.4169" stroke="#5F52F0" stroke-width="3.50625" stroke-linecap="round"/>
</svg>
