<svg width="113" height="114" viewBox="0 0 113 114" fill="none" xmlns="http://www.w3.org/2000/svg">
<path d="M32.8708 52.9421C32.8708 51.9542 33.2876 51.0122 34.0185 50.3477L59.3543 27.3146C60.6917 26.0988 62.7341 26.0988 64.0715 27.3146L89.4073 50.3477C90.1382 51.0122 90.5549 51.9542 90.5549 52.9421V66.0928C90.5549 68.4339 91.5975 70.6155 92.8277 72.6074C94.2729 74.9473 95.1068 77.7047 95.1068 80.6568C95.1068 89.1288 88.2389 95.9967 79.767 95.9967C76.1538 95.9967 72.8324 94.7475 70.2111 92.6574C67.9402 90.8468 65.3286 89.2639 62.4243 89.2639H36.3771C34.4407 89.2639 32.8708 87.694 32.8708 85.7576V52.9421Z" fill="#EBF1FF"/>
<path d="M45.1427 50.5083C45.1427 49.7821 45.7314 49.1934 46.4575 49.1934C47.1837 49.1934 47.7724 49.7821 47.7724 50.5083V55.3294H45.1427V50.5083Z" fill="#5F52F0"/>
<path d="M45.1427 63.6567C45.1427 62.9305 45.7314 62.3419 46.4575 62.3419C47.1837 62.3419 47.7724 62.9305 47.7724 63.6567V68.4778H45.1427V63.6567Z" fill="#5F52F0"/>
<path d="M62.674 50.5083C62.674 49.7821 63.2626 49.1934 63.9888 49.1934C64.715 49.1934 65.3036 49.7821 65.3036 50.5083V55.3294H62.674V50.5083Z" fill="#5F52F0"/>
<path d="M62.674 63.6567C62.674 62.9305 63.2626 62.3419 63.9888 62.3419C64.715 62.3419 65.3036 62.9305 65.3036 63.6567V68.4778H62.674V63.6567Z" fill="#5F52F0"/>
<path d="M59.0141 18.8085C57.1753 17.1367 54.3669 17.1368 52.528 18.8085L28.7513 40.4242C27.7462 41.3379 27.1732 42.6332 27.1732 43.9915V74.7598C27.1732 77.4225 29.3317 79.5809 31.9943 79.5809H67.2271C66.8584 78.7489 66.5795 77.8683 66.4026 76.9513H31.9943C30.784 76.9513 29.8029 75.9701 29.8029 74.7598V43.9915C29.8029 43.3741 30.0634 42.7853 30.5202 42.37L54.297 20.7543C55.1328 19.9944 56.4093 19.9944 57.2452 20.7543L81.022 42.37C81.4788 42.7853 81.7393 43.3741 81.7393 43.9915V62.7871C82.6643 63.0437 83.5455 63.4058 84.3689 63.8599V43.9915C84.3689 42.6332 83.796 41.3379 82.7909 40.4242L59.0141 18.8085Z" fill="#5F52F0"/>
<circle cx="78.4522" cy="74.6138" r="13.1484" fill="#5F52F0"/>
<path fill-rule="evenodd" clip-rule="evenodd" d="M86.0488 69.3811C86.5784 69.8778 86.6051 70.7099 86.1084 71.2396L78.6643 79.1766C77.8364 80.0594 76.4495 80.1039 75.5668 79.2759L71.4167 75.3836C70.8871 74.8869 70.8604 74.0548 71.3571 73.5251C71.8539 72.9954 72.686 72.9688 73.2157 73.4655L77.046 77.058L84.1903 69.4406C84.687 68.911 85.5191 68.8843 86.0488 69.3811Z" fill="white"/>
</svg>
