<svg width="16" height="16" viewBox="0 0 16 16" fill="none" xmlns="http://www.w3.org/2000/svg">
<path d="M5.33144 2.94252C5.1572 3.19994 5.17495 3.56303 5.39049 3.7993L9.22251 8.00009L5.38642 12.2053L5.33481 12.2709L5.33144 12.2759C5.1572 12.5333 5.17495 12.8964 5.3905 13.1326C5.63472 13.4004 6.03759 13.4004 6.28182 13.1326L10.5431 8.46151L10.5947 8.39596L10.5981 8.39099C10.7723 8.13357 10.7546 7.77048 10.539 7.53421L6.27769 2.86302L6.21755 2.8061L6.2127 2.80216C5.96514 2.60081 5.61162 2.62516 5.3905 2.86754L5.38643 2.87201L5.33481 2.93755L5.33144 2.94252Z" fill="#5F52F0"/>
</svg>
