<svg id="footer" width="99" height="51" viewBox="0 0 99 51" fill="none" xmlns="http://www.w3.org/2000/svg">
<path d="M49.4612 27.6192V32.324C49.4612 32.6897 49.1524 32.9822 48.7664 32.9822H33.0428C32.6568 32.9822 32.348 33.2747 32.348 33.6648L32.4252 36.5413C32.4252 36.9069 32.734 37.1751 33.12 37.1751H44.057C44.443 37.1751 44.7518 37.4676 44.7518 37.8333V42.5381C44.7518 42.9037 44.443 43.1962 44.057 43.1962H33.12C32.734 43.1962 32.4252 43.4888 32.4252 43.83L32.3222 49.8756C32.3222 50.2413 32.0134 50.5094 31.6274 50.5094H26.5835C26.1975 50.5094 25.8887 50.2169 25.8887 49.8512V27.5948C25.8887 27.2292 26.1975 26.9366 26.5835 26.9366H48.7406C49.1524 26.961 49.4612 27.2535 49.4612 27.6192Z" fill="url(#paint0_linear_84_1175)"/>
<path d="M58.6997 44.3664L60.6555 44.3908C61.0415 44.3908 61.3246 44.6833 61.3246 45.049V49.7782C61.3246 50.1438 61.0158 50.4363 60.6298 50.4363L52.3176 50.3876C51.9316 50.3876 51.6228 50.0951 51.6228 49.7294V27.6437C51.6228 27.278 51.9316 26.9855 52.3176 26.9855H57.2843C57.6703 26.9855 57.9791 27.278 57.9791 27.6437V43.7082C58.0306 44.0739 58.3137 44.3664 58.6997 44.3664Z" fill="url(#paint1_linear_84_1175)"/>
<path d="M69.6881 50.4851H64.7214C64.3354 50.4851 64.0266 50.1925 64.0266 49.8269V39.0034C64.0266 38.6377 64.3354 38.3452 64.7214 38.3452H69.6881C70.0741 38.3452 70.383 38.6377 70.383 39.0034V49.8269C70.383 50.1682 70.0741 50.4851 69.6881 50.4851Z" fill="url(#paint2_linear_84_1175)"/>
<path d="M82.0663 50.5582H77.0996C76.7136 50.5582 76.4048 50.2657 76.4048 49.9V27.6924C76.4048 27.3267 76.7136 27.0342 77.0996 27.0342H89.1432C90.6873 27.0342 92.1541 27.3511 93.5438 28.0093C94.9334 28.6675 96.1172 29.5207 97.1723 30.6176C98.2016 31.6902 98.9994 33.3479 98.9994 34.713C99.0251 38.4427 98.2016 39.8566 97.198 40.9292C96.1686 42.0018 94.9849 42.8306 93.5952 43.4888C92.2056 44.1226 90.7387 44.4639 89.1432 44.4883C88.0624 44.5126 87.0073 44.537 85.9522 44.5126C85.1287 44.4883 84.3052 44.4883 83.4559 44.4883C83.0699 44.4883 82.7611 44.7808 82.7611 45.1464V49.9244C82.7611 50.2657 82.4523 50.5582 82.0663 50.5582ZM82.7611 37.7601C82.7611 38.1258 83.0699 38.4183 83.4559 38.4183H88.9116C89.6322 38.4183 91.6137 38.2233 92.1541 37.7845C93.9555 36.3706 93.0805 34.518 92.1541 33.811C91.099 33.031 89.4777 33.031 88.7572 33.031H83.4559C83.0699 33.031 82.7611 33.3235 82.7611 33.6892V37.7601Z" fill="url(#paint3_linear_84_1175)"/>
<path d="M20.9734 14.9917C19.5065 16.0155 18.0139 17.0393 16.4956 18.0632C16.264 18.2338 15.9295 18.2338 15.6979 18.0632C14.1795 17.0393 12.687 16.0155 11.2201 14.9917C9.95913 14.1385 8.72389 13.2609 7.46291 12.3833C6.9997 12.0664 6.35634 12.3589 6.35634 12.9196V22.9142C6.35634 23.2799 6.04753 23.5724 5.66152 23.5724H0.694823C0.30881 23.5724 0 23.2799 0 22.9142V1.09665C0 0.560351 0.643355 0.243448 1.10657 0.560351C3.42265 2.16925 5.73872 3.75376 8.0548 5.33828C10.5768 7.06906 13.1244 8.82422 15.6721 10.6038C15.9037 10.7744 16.2383 10.7744 16.4956 10.6038C19.0433 8.82422 21.591 7.06906 24.1387 5.33828C26.4547 3.75376 28.7708 2.16925 31.0869 0.560351C31.5501 0.243448 32.1935 0.560351 32.1935 1.09665V22.9142C32.1935 23.2799 31.8847 23.5724 31.4986 23.5724H26.5062C26.1202 23.5724 25.8114 23.2799 25.8114 22.9142V12.9196C25.8114 12.3833 25.168 12.0664 24.7048 12.3833C23.4696 13.2609 22.2086 14.1385 20.9734 14.9917Z" fill="url(#paint4_linear_84_1175)"/>
<path d="M59.0342 13.1149C58.2879 14.0413 57.413 14.8701 56.3579 15.577C55.663 16.0646 54.891 16.4546 54.0933 16.7471C53.6043 16.9422 53.5014 17.5516 53.9131 17.8685L59.8062 22.4027C60.3209 22.7927 60.0121 23.5728 59.3688 23.5728H53.9131C53.7587 23.5728 53.6043 23.524 53.4756 23.4265L45.6782 17.6003C45.5495 17.5028 45.3951 17.4541 45.2407 17.4541H41.8181C41.432 17.4541 41.1232 17.7466 41.1232 18.1123V22.9146C41.1232 23.2802 40.8144 23.5728 40.4284 23.5728H35.5132C35.1272 23.5728 34.8184 23.2802 34.8184 22.9146V0.658185C34.8184 0.292526 35.1272 0 35.5132 0H50.3618C50.3875 0 50.3875 0 50.4133 0C51.9316 0.0975088 54.5822 0.463167 55.9204 1.0726C59.3945 2.65712 60.1151 4.11975 60.4496 6.9475C60.8614 10.0434 59.7805 12.1886 59.0342 13.1149ZM50.5934 11.4329C51.211 11.4329 52.5492 11.4329 53.2698 10.2628C53.8359 9.31209 53.5271 7.7032 53.1926 7.1669C52.4977 6.02117 50.7993 6.04555 50.0787 6.02117H41.8695C41.4835 6.02117 41.1747 6.3137 41.1747 6.67935V10.7747C41.1747 11.1404 41.4835 11.4329 41.8695 11.4329H50.5934Z" fill="url(#paint5_linear_84_1175)"/>
<path d="M62.2253 35.03H72.1844C72.7506 35.03 73.0851 34.4205 72.7248 33.9818L67.7324 27.7412C67.4493 27.3999 66.9089 27.3999 66.6258 27.7412L61.6334 33.9818C61.3246 34.4205 61.6591 35.03 62.2253 35.03Z" fill="url(#paint6_linear_84_1175)"/>
<path d="M72.1844 16.1376H62.2253C61.6591 16.1376 61.3246 16.747 61.6849 17.1858L66.6516 23.4264C66.9346 23.7676 67.475 23.7676 67.7581 23.4264L72.7506 17.1858C73.0851 16.747 72.7506 16.1376 72.1844 16.1376Z" fill="url(#paint7_linear_84_1175)"/>
<defs>
<linearGradient id="paint0_linear_84_1175" x1="-13.0444" y1="11.1718" x2="92.1487" y2="74.8501" gradientUnits="userSpaceOnUse">
<stop stop-color="#8152F6"/>
<stop offset="0.1158" stop-color="#7E56F4"/>
<stop offset="0.232" stop-color="#7662F0"/>
<stop offset="0.348" stop-color="#6976E8"/>
<stop offset="0.3973" stop-color="#6281E4"/>
<stop offset="0.482" stop-color="#6099E1"/>
<stop offset="0.5907" stop-color="#5FB0DE"/>
<stop offset="0.707" stop-color="#5EC1DD"/>
<stop offset="0.835" stop-color="#5DCBDB"/>
<stop offset="0.9973" stop-color="#5DCEDB"/>
</linearGradient>
<linearGradient id="paint1_linear_84_1175" x1="-8.14715" y1="4.46523" x2="96.5977" y2="67.8722" gradientUnits="userSpaceOnUse">
<stop stop-color="#8152F6"/>
<stop offset="0.1158" stop-color="#7E56F4"/>
<stop offset="0.232" stop-color="#7662F0"/>
<stop offset="0.348" stop-color="#6976E8"/>
<stop offset="0.3973" stop-color="#6281E4"/>
<stop offset="0.482" stop-color="#6099E1"/>
<stop offset="0.5907" stop-color="#5FB0DE"/>
<stop offset="0.707" stop-color="#5EC1DD"/>
<stop offset="0.835" stop-color="#5DCBDB"/>
<stop offset="0.9973" stop-color="#5DCEDB"/>
</linearGradient>
<linearGradient id="paint2_linear_84_1175" x1="-6.05963" y1="4.61111" x2="96.7543" y2="66.8492" gradientUnits="userSpaceOnUse">
<stop stop-color="#8152F6"/>
<stop offset="0.1158" stop-color="#7E56F4"/>
<stop offset="0.232" stop-color="#7662F0"/>
<stop offset="0.348" stop-color="#6976E8"/>
<stop offset="0.3973" stop-color="#6281E4"/>
<stop offset="0.482" stop-color="#6099E1"/>
<stop offset="0.5907" stop-color="#5FB0DE"/>
<stop offset="0.707" stop-color="#5EC1DD"/>
<stop offset="0.835" stop-color="#5DCBDB"/>
<stop offset="0.9973" stop-color="#5DCEDB"/>
</linearGradient>
<linearGradient id="paint3_linear_84_1175" x1="-2.11754" y1="-8.16852" x2="104.179" y2="56.1778" gradientUnits="userSpaceOnUse">
<stop stop-color="#8152F6"/>
<stop offset="0.1158" stop-color="#7E56F4"/>
<stop offset="0.232" stop-color="#7662F0"/>
<stop offset="0.348" stop-color="#6976E8"/>
<stop offset="0.3973" stop-color="#6281E4"/>
<stop offset="0.482" stop-color="#6099E1"/>
<stop offset="0.5907" stop-color="#5FB0DE"/>
<stop offset="0.707" stop-color="#5EC1DD"/>
<stop offset="0.835" stop-color="#5DCBDB"/>
<stop offset="0.9973" stop-color="#5DCEDB"/>
</linearGradient>
<linearGradient id="paint4_linear_84_1175" x1="-6.57112" y1="-0.30482" x2="98.5768" y2="63.3462" gradientUnits="userSpaceOnUse">
<stop stop-color="#8152F6"/>
<stop offset="0.1158" stop-color="#7E56F4"/>
<stop offset="0.232" stop-color="#7662F0"/>
<stop offset="0.348" stop-color="#6976E8"/>
<stop offset="0.3973" stop-color="#6281E4"/>
<stop offset="0.482" stop-color="#6099E1"/>
<stop offset="0.5907" stop-color="#5FB0DE"/>
<stop offset="0.707" stop-color="#5EC1DD"/>
<stop offset="0.835" stop-color="#5DCBDB"/>
<stop offset="0.9973" stop-color="#5DCEDB"/>
</linearGradient>
<linearGradient id="paint5_linear_84_1175" x1="1.64999" y1="-11.6097" x2="104.178" y2="50.4554" gradientUnits="userSpaceOnUse">
<stop stop-color="#8152F6"/>
<stop offset="0.1158" stop-color="#7E56F4"/>
<stop offset="0.232" stop-color="#7662F0"/>
<stop offset="0.348" stop-color="#6976E8"/>
<stop offset="0.3973" stop-color="#6281E4"/>
<stop offset="0.482" stop-color="#6099E1"/>
<stop offset="0.5907" stop-color="#5FB0DE"/>
<stop offset="0.707" stop-color="#5EC1DD"/>
<stop offset="0.835" stop-color="#5DCBDB"/>
<stop offset="0.9973" stop-color="#5DCEDB"/>
</linearGradient>
<linearGradient id="paint6_linear_84_1175" x1="2.48755" y1="-2.54353" x2="99.873" y2="56.4085" gradientUnits="userSpaceOnUse">
<stop stop-color="#8152F6"/>
<stop offset="0.1158" stop-color="#7E56F4"/>
<stop offset="0.232" stop-color="#7662F0"/>
<stop offset="0.348" stop-color="#6976E8"/>
<stop offset="0.3973" stop-color="#6281E4"/>
<stop offset="0.482" stop-color="#6099E1"/>
<stop offset="0.5907" stop-color="#5FB0DE"/>
<stop offset="0.707" stop-color="#5EC1DD"/>
<stop offset="0.835" stop-color="#5DCBDB"/>
<stop offset="0.9973" stop-color="#5DCEDB"/>
</linearGradient>
<linearGradient id="paint7_linear_84_1175" x1="8.68583" y1="-13.2295" x2="106.071" y2="45.7225" gradientUnits="userSpaceOnUse">
<stop stop-color="#8152F6"/>
<stop offset="0.1158" stop-color="#7E56F4"/>
<stop offset="0.232" stop-color="#7662F0"/>
<stop offset="0.348" stop-color="#6976E8"/>
<stop offset="0.3973" stop-color="#6281E4"/>
<stop offset="0.482" stop-color="#6099E1"/>
<stop offset="0.5907" stop-color="#5FB0DE"/>
<stop offset="0.707" stop-color="#5EC1DD"/>
<stop offset="0.835" stop-color="#5DCBDB"/>
<stop offset="0.9973" stop-color="#5DCEDB"/>
</linearGradient>
</defs>
</svg>
